<svg xmlns="http://www.w3.org/2000/svg" width="189.731" height="34.822" viewBox="0 0 189.731 34.822">
  <g id="word-to-html-logo" transform="translate(-319.619 -139.952)">
    <g id="Group_2" data-name="Group 2" transform="translate(351.363 139.952) rotate(90)">
      <path id="Path_1" data-name="Path 1" d="M0,26.614a5.327,5.327,0,0,0,5.5,5.129H29.32a5.327,5.327,0,0,0,5.5-5.129V5.129A5.327,5.327,0,0,0,29.32,0H9.785L0,8.9Z" fill="#4a7cdf"/>
    </g>
    <g id="Group_4" data-name="Group 4" transform="translate(341.786 139.952)">
      <path id="Path_3" data-name="Path 3" d="M-.947-25.625h-.269a5.757,5.757,0,0,0-.409,2.138v3.994a5.213,5.213,0,0,0,5,5.4H7.953v-1.744Z" transform="translate(1.625 25.625)" fill="#3361bc"/>
    </g>
    <g id="Group_5" data-name="Group 5" transform="translate(326.52 155.138)">
      <path id="Path_4" data-name="Path 4" d="M-5.453-17.649a.859.859,0,0,1,.554-.225c.322,0,.552.353.552.962A1.067,1.067,0,0,1-4.819-15.9l-3.237,2.164,3.237,2.162a1.069,1.069,0,0,1,.472,1.01c0,.609-.23.962-.552.962a.858.858,0,0,1-.554-.225l-4.09-3a1.173,1.173,0,0,1-.372-.913,1.177,1.177,0,0,1,.372-.914Z" transform="translate(9.915 17.874)" fill="#3376ad"/>
    </g>
    <g id="Group_6" data-name="Group 6" transform="translate(333.312 152.837)">
      <path id="Path_5" data-name="Path 5" d="M-2.6-23.438c.191-.881.3-1.057.744-1.057.322,0,.733.336.733,1.105a9.871,9.871,0,0,1-.282,1.57l-1.849,8.348c-.191.882-.3,1.058-.743,1.058-.322,0-.734-.336-.734-1.106a9.88,9.88,0,0,1,.282-1.57Z" transform="translate(4.735 24.495)" fill="#3376ad"/>
    </g>
    <g id="Group_7" data-name="Group 7" transform="translate(338.142 155.139)">
      <path id="Path_6" data-name="Path 6" d="M-.578-12.024a1.069,1.069,0,0,1-.473-1.009c0-.609.232-.962.554-.962a.853.853,0,0,1,.552.224l4.091,3a1.175,1.175,0,0,1,.371.914,1.171,1.171,0,0,1-.371.913l-4.091,3A.854.854,0,0,1-.5-5.726c-.322,0-.554-.352-.554-.962A1.071,1.071,0,0,1-.578-7.7L2.658-9.86Z" transform="translate(1.051 13.994)" fill="#3376ad"/>
    </g>
    <g id="Group_8" data-name="Group 8" transform="translate(326.52 154.688)">
      <path id="Path_7" data-name="Path 7" d="M-5.453-17.649a.859.859,0,0,1,.554-.225c.322,0,.552.353.552.962A1.067,1.067,0,0,1-4.819-15.9l-3.237,2.164,3.237,2.162a1.069,1.069,0,0,1,.472,1.01c0,.609-.23.962-.552.962a.858.858,0,0,1-.554-.225l-4.09-3a1.173,1.173,0,0,1-.372-.913,1.177,1.177,0,0,1,.372-.914Z" transform="translate(9.915 17.874)" fill="#fff"/>
    </g>
    <g id="Group_9" data-name="Group 9" transform="translate(333.312 152.387)">
      <path id="Path_8" data-name="Path 8" d="M-2.6-23.438c.191-.881.3-1.057.744-1.057.322,0,.733.336.733,1.105a9.871,9.871,0,0,1-.282,1.57l-1.849,8.348c-.191.882-.3,1.058-.743,1.058-.322,0-.734-.336-.734-1.106a9.871,9.871,0,0,1,.282-1.57Z" transform="translate(4.735 24.495)" fill="#fff"/>
    </g>
    <g id="Group_10" data-name="Group 10" transform="translate(338.142 154.689)">
      <path id="Path_9" data-name="Path 9" d="M-.578-12.024a1.069,1.069,0,0,1-.473-1.009c0-.609.232-.962.554-.962a.853.853,0,0,1,.552.224l4.091,3a1.175,1.175,0,0,1,.371.914,1.171,1.171,0,0,1-.371.913l-4.091,3A.854.854,0,0,1-.5-5.726c-.322,0-.554-.352-.554-.962A1.071,1.071,0,0,1-.578-7.7L2.658-9.86Z" transform="translate(1.051 13.994)" fill="#fff"/>
    </g>
    <g id="Group_21" data-name="Group 21" transform="translate(362.108 142.632)">
      <g id="Group_11" data-name="Group 11" transform="translate(0 0.878)">
        <path id="Path_10" data-name="Path 10" d="M13.866-25.514,15.712-35.55h3.825l-3.4,16H12.134L10-28.664,7.9-19.551H3.92L.5-35.55H4.348L6.171-25.514,8.376-35.55h3.263Z" transform="translate(-0.5 35.55)" fill="#4a7cdf"/>
      </g>
      <g id="Group_12" data-name="Group 12" transform="translate(19.895 4.77)">
        <path id="Path_11" data-name="Path 11" d="M1.25-20.847a7.154,7.154,0,0,1,.7-3.173,4.975,4.975,0,0,1,2-2.138A5.959,5.959,0,0,1,6.988-26.9,5.476,5.476,0,0,1,11.2-25.257a6.415,6.415,0,0,1,1.53,4.5v.135a6.183,6.183,0,0,1-1.53,4.41,5.458,5.458,0,0,1-4.185,1.643A5.535,5.535,0,0,1,2.938-16.1a5.841,5.841,0,0,1-1.665-4.118Zm3.713.225a4.537,4.537,0,0,0,.518,2.43,1.753,1.753,0,0,0,1.53.765q1.958,0,2.025-3.038v-.383c0-2.138-.7-3.2-2.048-3.2-1.238,0-1.913.923-2.025,2.745Z" transform="translate(-1.25 26.9)" fill="#4a7cdf"/>
      </g>
      <g id="Group_13" data-name="Group 13" transform="translate(33.026 4.77)">
        <path id="Path_12" data-name="Path 12" d="M9.528-23.322l-1.215-.09c-1.17,0-1.913.36-2.25,1.1v7.516H2.35V-26.675H5.838l.113,1.53A2.871,2.871,0,0,1,8.561-26.9a3.608,3.608,0,0,1,1.035.135Z" transform="translate(-2.35 26.9)" fill="#4a7cdf"/>
      </g>
      <g id="Group_14" data-name="Group 14" transform="translate(41.057)">
        <path id="Path_13" data-name="Path 13" d="M1.25-26.654a7.131,7.131,0,0,1,1.238-4.455,4,4,0,0,1,3.4-1.62,3.354,3.354,0,0,1,2.678,1.26V-37.5h3.713v16.877H8.946l-.18-1.283a3.488,3.488,0,0,1-2.9,1.508A3.931,3.931,0,0,1,2.51-22.041,7.405,7.405,0,0,1,1.25-26.654Zm3.713.225c0,2.115.608,3.173,1.845,3.173a1.824,1.824,0,0,0,1.755-1.035v-4.523a1.757,1.757,0,0,0-1.733-1.058c-1.148,0-1.755.923-1.868,2.768Z" transform="translate(-1.25 37.5)" fill="#4a7cdf"/>
      </g>
      <g id="Group_15" data-name="Group 15" transform="translate(58.891 2.025)">
        <path id="Path_14" data-name="Path 14" d="M5.521-33v2.97H7.478v2.565H5.521v5.446a1.3,1.3,0,0,0,.248.923,1.246,1.246,0,0,0,.945.27,5.341,5.341,0,0,0,.923-.068v2.655a7.252,7.252,0,0,1-2.093.315,3.942,3.942,0,0,1-2.813-.9,3.709,3.709,0,0,1-.923-2.745v-5.9H.3V-30.03H1.808V-33Z" transform="translate(-0.3 33)" fill="#4a7cdf"/>
      </g>
      <g id="Group_16" data-name="Group 16" transform="translate(67.042 4.77)">
        <path id="Path_15" data-name="Path 15" d="M1.25-20.847a7.154,7.154,0,0,1,.7-3.173,4.975,4.975,0,0,1,2-2.138A5.959,5.959,0,0,1,6.988-26.9,5.476,5.476,0,0,1,11.2-25.257a6.415,6.415,0,0,1,1.53,4.5v.135a6.183,6.183,0,0,1-1.53,4.41,5.458,5.458,0,0,1-4.185,1.643A5.535,5.535,0,0,1,2.938-16.1a5.841,5.841,0,0,1-1.665-4.118Zm3.713.225a4.537,4.537,0,0,0,.518,2.43,1.753,1.753,0,0,0,1.53.765q1.958,0,2.025-3.038v-.383c0-2.138-.7-3.2-2.048-3.2-1.238,0-1.913.923-2.025,2.745Z" transform="translate(-1.25 26.9)" fill="#4a7cdf"/>
      </g>
      <g id="Group_17" data-name="Group 17" transform="translate(85.934 0.878)">
        <path id="Path_16" data-name="Path 16" d="M16.066-19.551H12.241v-6.683H6.548v6.683H2.7v-16H6.548V-29.2h5.693V-35.55h3.825Z" transform="translate(-2.7 35.55)" fill="#4a7cdf"/>
      </g>
      <g id="Group_18" data-name="Group 18" transform="translate(100.935 0.878)">
        <path id="Path_17" data-name="Path 17" d="M14.266-32.58H9.451v13.029H5.6V-32.58H.9v-2.97H14.266Z" transform="translate(-0.9 35.55)" fill="#4a7cdf"/>
      </g>
      <g id="Group_19" data-name="Group 19" transform="translate(115.93 0.878)">
        <path id="Path_18" data-name="Path 18" d="M7.763-35.55l3.578,11.139L14.9-35.55h5.063v16h-3.87v-3.735l.383-7.651L12.6-19.551H10.058L6.165-30.937l.383,7.651v3.735H2.7v-16Z" transform="translate(-2.7 35.55)" fill="#4a7cdf"/>
      </g>
      <g id="Group_20" data-name="Group 20" transform="translate(135.653 0.878)">
        <path id="Path_19" data-name="Path 19" d="M6.548-22.521h6.706v2.97H2.7v-16H6.548v13.029Z" transform="translate(-2.7 35.55)" fill="#4a7cdf"/>
      </g>
    </g>
    <g id="Group_48" data-name="Group 48" transform="translate(362.933 165.044)">
      <g id="Group_22" data-name="Group 22" transform="translate(0 0)">
        <path id="Path_20" data-name="Path 20" d="M5.576-10.516a2.5,2.5,0,0,1-.64,1.731,2.274,2.274,0,0,1-1.674.593,2.119,2.119,0,0,1-1.74-.752,3.271,3.271,0,0,1-.6-2.126V-12.2a3.226,3.226,0,0,1,.621-2.116,2.157,2.157,0,0,1,1.74-.752,2.158,2.158,0,0,1,1.655.611A2.739,2.739,0,0,1,5.585-12.7H4.23a1.8,1.8,0,0,0-.216-.978.861.861,0,0,0-.734-.273.833.833,0,0,0-.771.386,2.647,2.647,0,0,0-.235,1.242v1.27A2.865,2.865,0,0,0,2.5-9.689a.819.819,0,0,0,.762.376A.887.887,0,0,0,4-9.576a1.733,1.733,0,0,0,.235-.941Z" transform="translate(-0.92 15.069)" fill="#1fc980"/>
      </g>
      <g id="Group_23" data-name="Group 23" transform="translate(5.374 0)">
        <path id="Path_21" data-name="Path 21" d="M5.766-11.034a3.141,3.141,0,0,1-.64,2.1,2.225,2.225,0,0,1-1.768.743A2.208,2.208,0,0,1,1.59-8.936,3.1,3.1,0,0,1,.941-11v-1.148a3.277,3.277,0,0,1,.64-2.145,2.166,2.166,0,0,1,1.768-.781,2.174,2.174,0,0,1,1.759.762,3.253,3.253,0,0,1,.658,2.135ZM4.411-12.153A2.781,2.781,0,0,0,4.148-13.5a.859.859,0,0,0-.8-.442.846.846,0,0,0-.79.433,2.655,2.655,0,0,0-.273,1.289v1.185a2.553,2.553,0,0,0,.263,1.3.909.909,0,0,0,.809.414.86.86,0,0,0,.79-.4,2.544,2.544,0,0,0,.263-1.26Z" transform="translate(-0.941 15.069)" fill="#1fc980"/>
      </g>
      <g id="Group_24" data-name="Group 24" transform="translate(11.163 0.094)">
        <path id="Path_22" data-name="Path 22" d="M5.866-8.172H4.521L2.546-12.555v4.383H1.191V-14.86H2.546l1.975,4.393V-14.86H5.866Z" transform="translate(-1.191 14.86)" fill="#1fc980"/>
      </g>
      <g id="Group_25" data-name="Group 25" transform="translate(16.48 0.094)">
        <path id="Path_23" data-name="Path 23" d="M2.833-10.006,3.953-14.86h1.5L3.529-8.172h-1.4L.209-14.86H1.7Z" transform="translate(-0.209 14.86)" fill="#1fc980"/>
      </g>
      <g id="Group_26" data-name="Group 26" transform="translate(22.36 0.094)">
        <path id="Path_24" data-name="Path 24" d="M4.643-11.069h-2.1v1.778H5.029v1.119H1.191V-14.86H5.02v1.129H2.546v1.58h2.1Z" transform="translate(-1.191 14.86)" fill="#1fc980"/>
      </g>
      <g id="Group_27" data-name="Group 27" transform="translate(26.985 0.094)">
        <path id="Path_25" data-name="Path 25" d="M3.225-10.618H2.557v2.446H1.212V-14.86H3.366a2.177,2.177,0,0,1,1.561.527,1.931,1.931,0,0,1,.555,1.5,1.942,1.942,0,0,1-.969,1.862L5.689-8.238v.066H4.232Zm-.668-1.119h.771a.71.71,0,0,0,.6-.273,1.173,1.173,0,0,0,.207-.715c0-.677-.263-1.006-.79-1.006h-.79Z" transform="translate(-1.212 14.86)" fill="#1fc980"/>
      </g>
      <g id="Group_28" data-name="Group 28" transform="translate(31.883 0.094)">
        <path id="Path_26" data-name="Path 26" d="M5.16-13.731H3.5v5.559H2.15v-5.559H.522V-14.86H5.16Z" transform="translate(-0.522 14.86)" fill="#1fc980"/>
      </g>
      <g id="Group_29" data-name="Group 29" transform="translate(38.999 0.094)">
        <path id="Path_27" data-name="Path 27" d="M2.641-11.859l1.006-3H5.124L3.328-10.6v2.427H1.964V-10.6L.167-14.86H1.635Z" transform="translate(-0.167 14.86)" fill="#1fc980"/>
      </g>
      <g id="Group_30" data-name="Group 30" transform="translate(44.449 0)">
        <path id="Path_28" data-name="Path 28" d="M5.766-11.034a3.141,3.141,0,0,1-.64,2.1,2.225,2.225,0,0,1-1.768.743A2.208,2.208,0,0,1,1.59-8.936,3.1,3.1,0,0,1,.941-11v-1.148a3.277,3.277,0,0,1,.64-2.145,2.166,2.166,0,0,1,1.768-.781,2.174,2.174,0,0,1,1.759.762,3.253,3.253,0,0,1,.658,2.135ZM4.411-12.153A2.781,2.781,0,0,0,4.148-13.5a.859.859,0,0,0-.8-.442.846.846,0,0,0-.79.433,2.655,2.655,0,0,0-.273,1.289v1.185a2.553,2.553,0,0,0,.263,1.3.909.909,0,0,0,.809.414.86.86,0,0,0,.79-.4,2.544,2.544,0,0,0,.263-1.26Z" transform="translate(-0.941 15.069)" fill="#1fc980"/>
      </g>
      <g id="Group_31" data-name="Group 31" transform="translate(50.182 0.094)">
        <path id="Path_29" data-name="Path 29" d="M5.477-14.86v4.628a2.146,2.146,0,0,1-.583,1.6,2.22,2.22,0,0,1-1.618.555A2.216,2.216,0,0,1,1.64-8.643a2.151,2.151,0,0,1-.574-1.618v-4.6H2.43v4.6a1.406,1.406,0,0,0,.179.818.8.8,0,0,0,.668.245.768.768,0,0,0,.658-.245,1.317,1.317,0,0,0,.188-.79V-14.86Z" transform="translate(-1.066 14.86)" fill="#1fc980"/>
      </g>
      <g id="Group_32" data-name="Group 32" transform="translate(55.621 0.094)">
        <path id="Path_30" data-name="Path 30" d="M3.225-10.618H2.557v2.446H1.212V-14.86H3.366a2.177,2.177,0,0,1,1.561.527,1.931,1.931,0,0,1,.555,1.5,1.942,1.942,0,0,1-.969,1.862L5.689-8.238v.066H4.232Zm-.668-1.119h.771a.71.71,0,0,0,.6-.273,1.173,1.173,0,0,0,.207-.715c0-.677-.263-1.006-.79-1.006h-.79Z" transform="translate(-1.212 14.86)" fill="#1fc980"/>
      </g>
      <g id="Group_33" data-name="Group 33" transform="translate(62.687 0.094)">
        <path id="Path_31" data-name="Path 31" d="M5.16-13.731H3.5v5.559H2.15v-5.559H.522V-14.86H5.16Z" transform="translate(-0.522 14.86)" fill="#1fc980"/>
      </g>
      <g id="Group_34" data-name="Group 34" transform="translate(68.095 0.094)">
        <path id="Path_32" data-name="Path 32" d="M4.643-11.069h-2.1v1.778H5.029v1.119H1.191V-14.86H5.02v1.129H2.546v1.58h2.1Z" transform="translate(-1.191 14.86)" fill="#1fc980"/>
      </g>
      <g id="Group_35" data-name="Group 35" transform="translate(72.325 0.094)">
        <path id="Path_33" data-name="Path 33" d="M2.818-12.565l.894-2.3H5.263L3.692-11.54,5.3-8.172H3.73l-.912-2.342L1.905-8.172H.334L1.943-11.54.372-14.86H1.915Z" transform="translate(-0.334 14.86)" fill="#1fc980"/>
      </g>
      <g id="Group_36" data-name="Group 36" transform="translate(77.673 0.094)">
        <path id="Path_34" data-name="Path 34" d="M5.16-13.731H3.5v5.559H2.15v-5.559H.522V-14.86H5.16Z" transform="translate(-0.522 14.86)" fill="#1fc980"/>
      </g>
      <g id="Group_37" data-name="Group 37" transform="translate(84.948 0.094)">
        <path id="Path_35" data-name="Path 35" d="M5.16-13.731H3.5v5.559H2.15v-5.559H.522V-14.86H5.16Z" transform="translate(-0.522 14.86)" fill="#1fc980"/>
      </g>
      <g id="Group_38" data-name="Group 38" transform="translate(90.243 0)">
        <path id="Path_36" data-name="Path 36" d="M5.766-11.034a3.141,3.141,0,0,1-.64,2.1,2.225,2.225,0,0,1-1.768.743A2.208,2.208,0,0,1,1.59-8.936,3.1,3.1,0,0,1,.941-11v-1.148a3.277,3.277,0,0,1,.64-2.145,2.166,2.166,0,0,1,1.768-.781,2.174,2.174,0,0,1,1.759.762,3.253,3.253,0,0,1,.658,2.135ZM4.411-12.153A2.781,2.781,0,0,0,4.148-13.5a.859.859,0,0,0-.8-.442.846.846,0,0,0-.79.433,2.655,2.655,0,0,0-.273,1.289v1.185a2.553,2.553,0,0,0,.263,1.3.909.909,0,0,0,.809.414.86.86,0,0,0,.79-.4,2.544,2.544,0,0,0,.263-1.26Z" transform="translate(-0.941 15.069)" fill="#1fc980"/>
      </g>
      <g id="Group_39" data-name="Group 39" transform="translate(98.078 0)">
        <path id="Path_37" data-name="Path 37" d="M5.576-10.516a2.5,2.5,0,0,1-.64,1.731,2.274,2.274,0,0,1-1.674.593,2.119,2.119,0,0,1-1.74-.752,3.271,3.271,0,0,1-.6-2.126V-12.2a3.226,3.226,0,0,1,.621-2.116,2.157,2.157,0,0,1,1.74-.752,2.158,2.158,0,0,1,1.655.611A2.739,2.739,0,0,1,5.585-12.7H4.23a1.8,1.8,0,0,0-.216-.978.861.861,0,0,0-.734-.273.833.833,0,0,0-.771.386,2.647,2.647,0,0,0-.235,1.242v1.27A2.865,2.865,0,0,0,2.5-9.689a.819.819,0,0,0,.762.376A.887.887,0,0,0,4-9.576a1.733,1.733,0,0,0,.235-.941Z" transform="translate(-0.92 15.069)" fill="#1fc980"/>
      </g>
      <g id="Group_40" data-name="Group 40" transform="translate(103.565 0.094)">
        <path id="Path_38" data-name="Path 38" d="M2.546-9.292h2.37v1.119H1.191V-14.86H2.546Z" transform="translate(-1.191 14.86)" fill="#1fc980"/>
      </g>
      <g id="Group_41" data-name="Group 41" transform="translate(108.066 0.094)">
        <path id="Path_39" data-name="Path 39" d="M4.643-11.069h-2.1v1.778H5.029v1.119H1.191V-14.86H5.02v1.129H2.546v1.58h2.1Z" transform="translate(-1.191 14.86)" fill="#1fc980"/>
      </g>
      <g id="Group_42" data-name="Group 42" transform="translate(112.249 0.094)">
        <path id="Path_40" data-name="Path 40" d="M3.851-9.546H2.017L1.66-8.172H.23L2.318-14.86H3.55L5.657-8.172H4.218ZM2.309-10.665H3.56l-.63-2.389Z" transform="translate(-0.23 14.86)" fill="#1fc980"/>
      </g>
      <g id="Group_43" data-name="Group 43" transform="translate(118.298 0.094)">
        <path id="Path_41" data-name="Path 41" d="M5.866-8.172H4.521L2.546-12.555v4.383H1.191V-14.86H2.546l1.975,4.393V-14.86H5.866Z" transform="translate(-1.191 14.86)" fill="#1fc980"/>
      </g>
      <g id="Group_44" data-name="Group 44" transform="translate(126.103 0)">
        <path id="Path_42" data-name="Path 42" d="M5.576-10.516a2.5,2.5,0,0,1-.64,1.731,2.274,2.274,0,0,1-1.674.593,2.119,2.119,0,0,1-1.74-.752,3.271,3.271,0,0,1-.6-2.126V-12.2a3.226,3.226,0,0,1,.621-2.116,2.157,2.157,0,0,1,1.74-.752,2.158,2.158,0,0,1,1.655.611A2.739,2.739,0,0,1,5.585-12.7H4.23a1.8,1.8,0,0,0-.216-.978.861.861,0,0,0-.734-.273.833.833,0,0,0-.771.386,2.647,2.647,0,0,0-.235,1.242v1.27A2.865,2.865,0,0,0,2.5-9.689a.819.819,0,0,0,.762.376A.887.887,0,0,0,4-9.576a1.733,1.733,0,0,0,.235-.941Z" transform="translate(-0.92 15.069)" fill="#1fc980"/>
      </g>
      <g id="Group_45" data-name="Group 45" transform="translate(131.477 0)">
        <path id="Path_43" data-name="Path 43" d="M5.766-11.034a3.141,3.141,0,0,1-.64,2.1,2.225,2.225,0,0,1-1.768.743A2.208,2.208,0,0,1,1.59-8.936,3.1,3.1,0,0,1,.941-11v-1.148a3.277,3.277,0,0,1,.64-2.145,2.166,2.166,0,0,1,1.768-.781,2.174,2.174,0,0,1,1.759.762,3.253,3.253,0,0,1,.658,2.135ZM4.411-12.153A2.781,2.781,0,0,0,4.148-13.5a.859.859,0,0,0-.8-.442.846.846,0,0,0-.79.433,2.655,2.655,0,0,0-.273,1.289v1.185a2.553,2.553,0,0,0,.263,1.3.909.909,0,0,0,.809.414.86.86,0,0,0,.79-.4,2.544,2.544,0,0,0,.263-1.26Z" transform="translate(-0.941 15.069)" fill="#1fc980"/>
      </g>
      <g id="Group_46" data-name="Group 46" transform="translate(137.266 0.094)">
        <path id="Path_44" data-name="Path 44" d="M1.191-8.172V-14.86H2.96a2.445,2.445,0,0,1,1.872.743,2.934,2.934,0,0,1,.705,2.041v1.082a2.928,2.928,0,0,1-.7,2.069,2.486,2.486,0,0,1-1.919.752Zm1.354-5.559v4.44h.4a1.142,1.142,0,0,0,.95-.357,2.1,2.1,0,0,0,.282-1.232v-1.157a2.421,2.421,0,0,0-.254-1.307,1.059,1.059,0,0,0-.894-.386Z" transform="translate(-1.191 14.86)" fill="#1fc980"/>
      </g>
      <g id="Group_47" data-name="Group 47" transform="translate(142.58 0.094)">
        <path id="Path_45" data-name="Path 45" d="M4.643-11.069h-2.1v1.778H5.029v1.119H1.191V-14.86H5.02v1.129H2.546v1.58h2.1Z" transform="translate(-1.191 14.86)" fill="#1fc980"/>
      </g>
    </g>
  </g>
</svg>
